<svg
  width="25"
  height="22"
  viewBox="0 0 25 22"
  fill="none"
  xmlns="http://www.w3.org/2000/svg"
>
<path
    d="M13.7033 0.338623C7.9248 0.338623 3.224 4.96922 3.0836 10.7334V10.9999H0L4.6722 16.0621L9.2144 10.9999H5.7408V10.7334C5.8799 6.43952 9.3912 3.00492 13.7033 3.00492C18.1051 3.00492 21.6736 6.58512 21.6736 10.9999C21.6736 15.4147 18.1051 18.9949 13.7033 18.9949C12.0061 18.9959 10.3534 18.4523 8.9882 17.444L7.1604 19.3992C9.02592 20.8655 11.3305 21.6613 13.7033 21.6586C19.5728 21.6586 24.3295 16.8876 24.3295 10.9999C24.3295 5.11222 19.5728 0.338623 13.7033 0.338623ZM12.4033 4.49992V10.9999C12.4048 11.3444 12.5416 11.6745 12.7842 11.919L16.9442 16.079C17.3121 15.8411 17.6592 15.5733 17.9673 15.2626L15.0033 12.2999V4.49992H12.4033Z"
    fill="black"
    fill-opacity="0.75"
  />
</svg>
